<?xml version="1.0" encoding="utf-8"?>
<!-- Generator: Adobe Illustrator 19.2.0, SVG Export Plug-In . SVG Version: 6.00 Build 0)  -->
<svg version="1.1" id="svg2823" xmlns:svg="http://www.w3.org/2000/svg"
	 xmlns="http://www.w3.org/2000/svg" xmlns:xlink="http://www.w3.org/1999/xlink" x="0px" y="0px" viewBox="0 0 600 600"
	 style="enable-background:new 0 0 600 600;" xml:space="preserve">
<style type="text/css">
	.st0{fill:#FFFFFF;}
</style>
<desc>Human Brain Symbol -- Based on Wiki Commons File:BrainLobesLabelled.jpg -- Grophic created by Detmar Owen</desc>
<g>
	<path id="Brain_Background_Contour" d="M252,38.6c-6.2,0.1-12.4,0.7-18.4,1.9c-7,3.8-18.5,5.5-21.3,16.3c-10.2,0.8-20.6,4-31.1,4
		c-10.6,0.1-20.8,2.6-30.4,6.9c-9.6,6.9-19,14.2-29,20.7c-10.4,4-8.5,19.2-20.4,17.1c-9.7,2.8-19.1,8.7-25.1,16.9
		c-3.5,10.4-11.6,13.8-20.1,19.7c-7,7.8-19.9,15.1-12.9,27.8C40.9,180,27.6,185.1,27,197c5.5,12-12.5,10.3-10.8,22.3
		c1.8,10.2-1.8,18.4-6.6,26.9c2,9.1,0,16.3-7,22.6c-5.3,9.9,5.7,21.8-0.4,30.6c-3,10.9-2.5,22.8-0.8,34C5.6,343.8,8,354.7,12,365.2
		c4.5,10.3,9.6,20.2,21.3,23.7c3.1,9.7,15.4,13,24.6,9.5c12.1-5.1,2.2,10.2,3.8,16.1c1,9.8,5.3,20.1,8.9,27.4
		c6.1,6.6,12.7,13.6,19.8,19.4c7.8,7.3,19.6,8.4,25.4,17.9c5.8,8.8,20.3,3.4,24.2,11.9c6.9,9.8,19.2,3.8,28.1,9
		c9.7,6.3,20.6-1.5,29.9,3c8.7,4.7,19.7,4.3,29.1,1.8c7-4.5,10-0.4,8.5,7.5c1,9.7-1.7,19.4-0.3,28.8c-1.4,10.6,4.7,19.9,15.9,20.3
		c8.5,0.3,19.1-1.6,22.8-10.4c2.1-11.7,2.2-23.9,4.8-35.7c2.7-10.5,3.7-21.6,11.5-30c9.3-12.6,21.5-26.7,18.8-43.6
		c5.3-5.3,16.8-10.2,20.2-19.8c8.7-10.8,13-24.2,21.2-35.3c9.6,3.4,20,7.8,30.7,6.7c10-1.6,20-4.7,28.9-9.3
		c4.1-11.8,16.3-5.9,25.5-11.2c12.1-2.8,18.6-13.4,25.4-22.7c5.2-8.4,13.6-16.4,14.3-27.2c2.7-11.3,3.2-23.8,0.5-35.1
		c-5.1-8.8,2.8-6.6,9.2-6.4c10.9-0.1,22.1-1.6,33-2.3c8-4.8,19.5,0.7,26.6-8.3c8.2-3.2,18.2-4,24.4-12c13-3.1,19-16.5,23.4-27.9
		c4.4-10.6,6.8-22.1,7.5-33.4c-2-10-0.9-22.4-9.4-29.8c-0.6-14.5-7.8-29-19.7-37.7c-2.9-10.7-10.8-20.2-21.4-24.4
		c-2.9-9.2-19.5-2.8-17.5-12c-4.9-8.5-13.5-16-21.9-20.2c-8.4-4.2-19.3,0-26.5-5.1c-8.3-7.4-19.8-8.7-30.2-10.8
		c-9.5-0.5-19.1-4.5-27.9-4.9c-6.8-4.2-18-10.3-24.6-2.1c-7-1.6-16.2-11.2-26.5-8.1c-10.8,1.4-21.8-4.1-33-2.7
		c-8.6-3.5-18.7,7.2-25.9,3.9c-10.5-3.3-23-3.8-33.4,0.2C272.7,40.1,262.3,38.5,252,38.6L252,38.6z"/>
	<path id="Brain_Lobes" class="st0" d="M226,480.4c0.3,0,0.6,0.8-0.8,2c-1.4,1.4-3.1,2.3-4.8,3.1c-2.1,1.4-3,0.5-2.6-0.1
		C221.7,482.4,224.8,480.4,226,480.4z M228.7,473.1c-0.5,2.1-3,3.5-5.2,4.3c-1.3,1.6-6.6,5.5-10.2,6.5l-9.8,5.1
		c-0.8,0.7-2.1,0.7-2.2,0.5c-0.2-0.4,0.3-1.4,0.9-1.5c3.3-1.4,6.9-5.6,11.1-6.6C218,479.2,227.4,472.8,228.7,473.1z M198.2,449.3
		c0.3,1.2-8.4,11.7-8.8,11.7c-2,2.7-8.4,11.5-10.1,13.1c-1.9,2.9-1.3,2-2.4,3.3c-0.6,0.7-4.1,4.2-5.6,4.4
		c-0.2-1.4,8.8-10.3,11.9-16.3c1.5-1.4,4.1-4.8,4.8-5.5C189.4,458.5,195.5,449.2,198.2,449.3z M305.9,444.2
		c2.3,11.5-5.1,21.7-11,30.8c-4,9.4-17,15.7-15.2,26.7c-3.3,14.6-5.6,29.5-7,44.2c-0.3,1.7-1.9,2.7-3.6,2.4
		c-7.9-2.1,2-16.3-3.3-23.2c-6.4-6.2-2.7-17.6-2.9-26c2.9-14.9,5.2,4.5,4.2,9.5c-0.2,14.7,6-1,6.4-6.7c1.6-14.6,14.4-23.3,22.9-33.7
		C301.9,461.8,303.8,449.1,305.9,444.2z M213.2,436.4c0.1,0,0.2,0,0.3,0c0.3,0,0.2,0.4-0.6,1.8c-0.6,0.4-2.6,2.7-4.3,4.1
		c-2.2,2.4-5.2,7.7-7.5,10c-0.9,0.7-1.1,1.5-1.6,1.8c-2.5,4.7-15.4,19.4-18.9,24.7c-1.8,4.1-7.2,6-2,0.1
		c5.5-8.1,11.4-15.8,17.2-23.6c2.9-2.6,5.7-7.5,8.7-11c1.8-2.1,2.6-3.1,3-3.3C209.3,439.6,212,436.5,213.2,436.4z M252.1,436.4
		c1,1.5-10.2,16.1-12.5,18.4c-5.8,8.1-14.4,12.7-22.6,18.3c-6.7,1.8,0.6-3.7,2-4.1c10.5-5.2,17.8-15,25.5-23.5
		C246.4,443.4,251,436.4,252.1,436.4z M157.3,433.7c-0.3,1.6-7.8,4.8-14.2,10.8c-7.4,5.9-14.4,14-15.9,17.4c-1,1.8-4.7,8.7-3.4,1.3
		c2.5-4.3,9.8-13.8,18-20.7C146.6,438.9,154.9,433.1,157.3,433.7z M235.2,431.6c1.4,1.3-3,4.1-4.4,6.1c-1.6,1.8-2.2,2.5-3.7,4.6
		c-6,7.3-12.6,16.1-16.4,23l-4,4.4c-1.7-3.2,9.4-14.5,11.6-19.5C223.3,443.3,234.4,431.3,235.2,431.6z M269.8,434.6
		c-1.1,4.6-3.4,10.1-3.9,12c-1,2.5-2.6,8.1-4.3,8.4c-0.7-3.1,5.2-18.9,7.3-23.7c0.2-0.1-0.9-3,1-4.7
		C270.9,428.3,270.1,432.7,269.8,434.6L269.8,434.6z M103.8,428.2c3.2,2.1-10,9-12.3,12.6c-1.8,1-2.2,3.9-5.5,4.4
		C87.2,439,97.2,433,103.8,428.2z M159.8,427.8c1.2-0.1-0.5,1.3-4.8,3.1c-4,1-7.2,2.9-10.4,5.3c-6,4.1-11.5,6.5-16.4,12.1l-2.4,1.9
		l-5.7,4c-0.1-4.7,14.5-13.1,18-16.1c1.7-1.1,5.7-3.6,7.7-5C147.5,431.8,158,427.9,159.8,427.8z M175.3,425.5
		c-1.1,2.5-7.3,6.1-10.3,8.3c-5.5,4.2-11.7,9.2-16,12.6c-7.6,4.1-18.7,19-20,18c-0.6-1.6,3.3-4.7,4.1-6.3c6-6.7,12-13.4,19.8-17.8
		C159.2,436.3,171.2,425.7,175.3,425.5z M95.8,424c-0.4,1.6-3.1,3.2-6.6,4.4c-3.2,2.8-7.8,5.3-9.6,4.2C83.7,427.7,93.9,423,95.8,424
		z M183.4,423.4c-0.7,2.1-3.6,3.6-7.6,6.7c-4.7,3.7-7.3,7.1-10,7c0.5-2,4-4.7,8.5-8.3C178.3,425.7,181.1,423.6,183.4,423.4z
		 M316.5,421.1c0.1,0,0.1,0,0.1,0c0.7,0.3-3.3,8.9-7.5,10l-2.2,0.9c-7.3,2.2-3.8-2.5-1.9-5.8c4.2-9.4,2.8,3.2,7.8-1.4
		C314.5,422,316.1,421.3,316.5,421.1z M258.9,418.4c0.9,1.3-3.8,9.3-9.7,17.7c-4.6,6.5-10.3,12.6-14.4,16.9
		c-3.6,2.5-12.2,10.3-14.7,11.7l-2.7,0.2c-0.4-1.3,4-4.6,9.8-8.9c3.6-0.5,13.8-13.2,18.1-17.9c0.8-0.7,1.7-2.3,2.5-3.2
		C251.6,429.4,255.2,420,258.9,418.4z M99.7,418.1c-1.7,3.7-4.9,3.7-9.3,4.7c-3.6,1.9-7.1,3.4-10.9,5.8c-3.2,3-4.5,0.2-1.1-1.8
		C85,422.8,96.4,417.8,99.7,418.1z M312.8,419.8c-5.1,4.9-1.6-1.8-0.4-2.3C313.9,416.8,313,419.3,312.8,419.8z M254,417.4
		c0.6,1.8-1.7,5.7-3.1,7.2c-4.9,7.7-9.6,14.9-16.8,20.9c-1.5,2-5.9,6.6-7.8,6.6c-0.4-1.7,4.7-5.4,6.8-8.2c4.7-6,10.8-12.5,14.4-17.5
		C248.8,425.2,252.8,417.7,254,417.4z M103.8,413.3c0.2,2.8-5.9,2.5-9.3,4c-8.7,3.1-9.5,3.3-15.2,6.1c-1.4,0.8-3.1,1.6-5.4,0.8
		c-0.4-3,13.7-7.2,17.4-8.3C95.3,414,101.3,412.6,103.8,413.3z M274.9,410.5c1,1.3,1.1,4,0.8,5.6c-0.2,1.6-0.3,4-0.3,4
		c0.2,0-0.3,2.5-0.1,4.1c-0.5,4.5-1.3,8.6-2.7,13.7c-1.1,4.2-2.7,9.2-4.1,13c-1.1,6-5.2,11.9-7.4,14.4c-2.7,3.2-4.5,5.4-5.4,6.4
		c-5.8,6.4-11.8,10.6-18.5,16.2c-1.5,1.1-3.2,2.3-4.1,2.3l-10.9,6.4c-1.9,0.5-1.3-1.3-0.1-2c4.9-2.3,8.5-5.7,13.3-8.1
		c4.2-3.2,7.7-6,12-10c3.7-3.4,8.5-7.3,9.1-9.3c3.5-4.2,10.1-12.2,9.8-16.5c2.3-5.3,3.8-10,4-11.4c1.1-4.1,2.3-7,2.7-11.9
		C273.3,423,274.1,411.6,274.9,410.5L274.9,410.5z M162.9,409.9c-0.3,2.8-16,9.1-23.6,12.9c-0.2,0.5-3.2,1.2-5.5,3
		c-8.9,5.5-13.1,7.1-19.7,15c-0.7,0.4-2.7,3.4-5.4,6.2c-1.4,2.1-3.9,5.4-6,6.5c-2.1-3.8,6.9-12.7,8.8-14.4
		c6.6-7.2,17.4-13.6,21.7-15.7C143,418.5,160.1,409.9,162.9,409.9L162.9,409.9z M247.9,407.5c-0.5,2.9-7.2,8.7-11.2,12.5
		c-1.6,2.7-12.7,11.5-14.4,14.7c-5.8,6.4-11.8,13-15.9,20c-5.8,8.9-12,17.1-19.3,24.9c-1.8,1.6-7.9,6.9-3.1,0.5
		c7.1-6.6,12-15.6,17.7-23.5c4.5-5.4,8.2-12.9,13.3-17.5c2.6-2.8,5.1-5.5,7.9-8.5c3.5-3.7,7.7-7.3,11.4-10.6
		C236.4,418.2,245,407.5,247.9,407.5z M107.3,406.8c1.4,0,1.6,0.4-0.7,1.6c-9.5,1.2-18.3,7.8-27.4,7.9c-1.8,1.1-3.8,2.2-5.9,2.3
		c-3-5.6,14.4-7.1,19.5-9.2C94.9,409,104.2,406.8,107.3,406.8z M247.1,404c0,1.4-9.6,8.3-11.3,10c-2.7,2.6-5.8,5.6-7.8,6.5
		c-4.8,2.9-8.4,7.2-13.3,10c-5.3,2.9-9,7.7-14,11.1c-8.9,7.9-24.3,20.6-26,24.2l-3.9,2.1c-2.6-2.4,10.9-11.1,13.9-15.4
		c7.2-5.9,13.4-11.7,20.7-17.1c1.5-1.2,4-3.4,5.8-4.9c4.3-3.2,8.3-5.6,12.4-9c1-0.9,3.9-3.4,5.8-4.2
		C231.4,415.6,246.1,403.9,247.1,404z M73.8,403.5c1.3,0,2.7,0.6,3.9,1.9c-0.4,1-1.8,0.7-2.5,1C67.5,407.6,70,403.4,73.8,403.5z
		 M78.1,399.8c2.8,0,6.2,0.6,7.9,2.3c-1.9,1.7-4.9,0.7-6.9-0.1C70.4,401.4,73.5,399.8,78.1,399.8z M248.8,397.8
		c1.3-0.1-5.4,7.2-8.1,7.6c-7.9,7.3-17.2,12.7-25.4,19.7c-7.9,5.7-15.9,11.5-23.3,17.9c-7.6,6.6-15.5,13.3-21.9,20.8
		c-6.8,5.3-9.9,10.4-15.2,17.3l-2.4,4l-2.2,2.7c-2.5-3.2,9.4-15.1,12.3-20c4.7-6.5,11-10.7,16.1-16.5c5.7-5.2,12.4-11.7,19.4-16.1
		c7.3-6.1,15.2-12.2,23-18c7.9-6.2,16.6-11.3,24.4-17.2C247.5,398.4,248.4,397.8,248.8,397.8z M266.1,419.7c-0.7,4.3-2,7.5-2.8,11.5
		c-0.5,2.6-1.9,5.5-2.7,8c-0.6,2.3-2.1,4.3-3.2,6.4c-1.6,2.9-2,5.6-3.9,4.8c0.1-1,2.2-5.4,3.4-8c1.9-2.9,2.6-6.3,4.4-9.2
		c0.3-2.7,2.3-8.5,3.2-14.4c0.5-3.4,1.2-10.1,1.6-13.3c0.7-6.6,1.1-8.6,1.3-8.6c1.6,2.1,0.4,7.6,0.2,11.4
		C267.4,412.2,266.7,415.9,266.1,419.7z M256.4,396.8c0.7,0.7,1.1,5.6-0.9,7.5c-3.4,6.1-7.8,11.9-13,16.6c-0.7,0.5-6.1,5.9-8.5,8
		c-4.6,4.6-9.5,7.4-11.8,12.3c-6.2,6.4-9.3,14.3-15.7,20.4c-2.6,6.3-7.7,10.9-11.9,16.7c-1,1.5-2.9,3.8-4.7,5.5
		c-1.6,0.9-1.9,0.8-1.7,0.3c3.1-3.5,5.2-7.7,8.3-11.2c5.7-7.7,10.7-16.1,16.7-23.7c6.1-8.2,11.2-16.5,19.9-22.2
		c5.3-5.3,13.9-13.9,18.5-19.9C254.4,402.8,255.3,397.6,256.4,396.8z M128.1,396.6c-6.9,4.1-15.1,4.8-23,6.7
		c-10.1,1.4-19.5,4.7-28.8,8.1c-1.1,5.9-12.2-1.9-8.2-2.8c8.6,2.2,15.4-4.4,24.3-5.3C104.2,400.3,116,397.6,128.1,396.6z
		 M230.3,396.1c0,1.8-7.3,5.4-10.1,7.1c-1.9,0.2-14.2,8.5-17.5,11.9c-8.5,7.1-17.5,13.1-25.7,20.9c-7.1,4.4-12.8,11.7-18.9,17.5
		c-7.6,6.7-12.8,15-17.8,23.7l-2,0.9c-1.1-3.6,6.8-14.5,10.5-19.9c7.1-8.1,16.3-15.1,24.4-22.5c6.9-6.2,13.4-12.8,20.7-18.2
		C203.5,410.3,227.4,395.5,230.3,396.1z M221.1,395.9c0.9,1.9-5.2,3.4-7.8,4.5c-8,3.4-14.9,8.1-22.7,11.5
		c-8.5,3.4-16.2,7.5-24.8,9.9c-8.7,4.8-19,6.6-27.4,12.7c-9.9,5.3-19.8,12.4-25.8,21.9c0,0.8-1.9,4.5-2.8,2.2
		c2.7-8.8,11.6-13.9,17.2-20.4c7.6-4.1,14.9-10.8,23.6-12.7c8.1-3.5,16.1-6.4,24.3-9.3c8.5-4,17.3-7.2,25.2-11.5
		C206.9,401.6,217.1,395.4,221.1,395.9L221.1,395.9z M247.5,394.9c1.8,0-7,6.7-10.2,7.7c-6.2,4.8-13.5,8.3-19.5,13.2
		c-7.1,6.1-14.6,11.5-22,16.7c-6.9,6.6-15.2,12.4-21.9,19.6c-6.9,7.9-16.2,14.9-21.3,24.3l-1.4,1.4c-4.1-4.7,9.1-13.1,12.3-18.9
		c8-8.4,16.6-16.2,25.4-23.6c8.1-6.5,16.4-12.7,24.6-19.2c8.7-5.4,17.1-12.1,26.1-17.2C241.7,397.7,246.9,394.9,247.5,394.9z
		 M192.1,394.6c0.2,0,0.3,0.1,0.4,0.1c0,1.8-21,8.8-31.6,13.6c-8.5,3.9-15.1,6.8-25.2,11.4c-11.7,7.1-26.4,15.8-36,28
		c-4.3,4.1-4,1-1.1-2.8c3-3.9,8-8.8,9.4-9.1c7.1-6.1,16.5-13.4,24.7-17.4c10.9-5.5,22.1-9.2,33-14.5c6.4-2.4,14.1-6.5,21.8-8.1
		C190.2,394.7,191.6,394.6,192.1,394.6z M84.6,394.3c4.5,0,10.7,1.2,11,4.4c-3.4,2.3-7.5-2-11.2-1.8
		C77.4,395.4,80.1,394.3,84.6,394.3z M244.2,391.8c0.7,2.2-17.8,11.4-24.1,17.3c-8.6,5.8-16.6,12.5-25.1,18.5
		c-13,11.6-27,22.2-38.6,35.3c-5,7.7-11.8,12.9-14.8,21.5c-1,3.9-2.8-1.4-2-2.6c4.2-8.6,10.2-16.1,15.9-23.3
		c6-6.3,10.8-11.8,17.6-17.4c8.3-5.5,14.6-13.7,22.4-18.8c7-5.3,14.1-10.4,21.3-15.6c4.2-2.4,9.4-5.6,13.9-7.4
		C234.5,396.6,241.9,391.5,244.2,391.8z M92.3,388.3c1.3-0.1,2.9,1.2,3.4,1.6c4.3,0.5,11.8,3.1,17.3,5.3c-2.6,3.2-13.4-0.7-18-2.5
		c0,0-3.9-1.9-4.2-3.2C91.1,388.6,91.7,388.3,92.3,388.3z M173.4,386.6c-1.3,3-12.5,6.5-18,8.3c-12.1,3.9-23.3,10.3-35.2,14.5
		c-9.1,5.9-3.6-3.3,2.6-3.4C139.3,398.7,155.8,390.9,173.4,386.6z M206.9,385.5c0.7,1.9-3.3,2.9-6.2,3.7c-7.6,2.2-17.9,5.7-27,9
		c-9.6,3.9-18.7,8.6-28.2,11.8c-7.6,4.1-16.6,7.4-24.4,12.1c-8.8,6-17.5,11.6-23.4,20.8c-8.4,7.1-0.6-4.6,2.1-6.1
		c5.3-5.8,9-10.5,15-13.6c7.2-6,16.9-9.6,25.3-14.4c9.9-4.8,19.8-7.1,29.3-11.7c11-3.8,21.8-8.7,33.3-10.8
		C205.2,385.8,206.4,385.6,206.9,385.5z M102.2,385.4c9.2,0.6,17.9,6.6,26.3,8.1c-4.9,2.5-10.6,0.6-15.2-1.6
		C109.5,390.4,88.9,386.2,102.2,385.4z M237.8,385.3c2.1,0,0.8,0.6,0.8,1.3c-4.8,0.8-10.1,2.1-14.4,3.9c-1.8,0.8-10.7,5-13,6.2
		c-9.8,5-18.4,10.1-28.8,14.1c-7.8,3-15.3,6.4-22.9,9.3c-7.5,2.4-14.5,5.3-21.4,8.9c-11.8,5.9-22.6,15.5-29.1,27
		c-5.1,4.6,4.5-10.5,6.1-11.5c6.2-8.8,15.8-13.6,24.6-19.1c6.5-3.4,13-6.1,19.8-8.4c10.3-4.3,20.6-7.7,30.9-12.2
		c9.8-5.6,20.2-10.4,30.4-15.1C225.2,387.8,232.1,386.1,237.8,385.3z M167.2,384.1c0.5,0,1.1,0,1.7,0.3c-2,1.6-13.4,6.4-18.3,7.6
		c-5.9,2.3-22,9.2-30,12.6c-1.2-2.8,13.5-9.2,19.2-11.7c6-2.6,17.4-7.4,23.3-7.6C164.1,385.3,165.6,384.2,167.2,384.1z M228.7,383.5
		c1.7-0.1,4-1.1,5.1,0.7c-4.6,1.7-14,2.6-19.8,5.6c-8.4,3.5-16.4,9.1-24.7,12.4c-8,3.2-14.6,6-22.4,10c-4.8-1.1,9.5-7,11.9-8.3
		c9.5-3.9,18.8-8.8,28.3-13.3C214.3,387.7,221.2,383.8,228.7,383.5z M109.7,382c0.7-0.3,6.2,1.6,9.2,3.5c-0.3,0.2,5.3,2.3,11.9,2.9
		c4,0.8,8.3,0.9,8.7,1.7c-1.3,1.1-6.4,1.2-10.9,1.1c-5.2-0.8-10.1-3.2-12.3-3.5C113.6,386,109.1,384.1,109.7,382z M270.7,381.7
		c1.4,0.1,1.5,3.6,1.2,5c0.1,3.2-0.3,10.7-0.4,12.8c-0.2,1.8,0.1,5.2-1.4,5.2c-0.4-0.2-0.2-5.6-0.1-11
		C270.2,388.2,269.9,381.7,270.7,381.7z M116.9,379.4c1.5-0.1,3.2,0.2,4.5,1c5.8,5.1,20.5,3.1,22.6,5.5c-8.8,1.9-18.2,1.2-26.1-3.4
		C111.8,381.5,113.7,379.6,116.9,379.4z M215.5,378.9c1.2-0.1,2.1,0.1,2.5,0.8c-2.4,0.9-29.5,9.1-44,14.2
		c-11.3,4.4-21.8,7.2-34.1,12.4c-16.8,9.5-35.2,17-50.4,29.3c-10.8,9.8,0.6-6.6,6.1-7.6c8.8-6.1,17.4-11.9,27.6-16
		c9.9-5.1,19-10.8,29.8-13.7c10.2-3.8,20.6-8,31.1-11.5c7.9-2.6,17-4.3,24.7-6.3C210.9,380,213.5,379.1,215.5,378.9z M164.2,378.3
		c1.9,0,4.9,0.5,7.9,0.4c4.5-0.1,7.4-0.8,8.5,0.4c-0.5,1.4-8.9,1.3-12.2,1.3c-5.4-0.7-9,1.5-14.3,2.5c-7.6,1.4-13.9-1-21.8-0.4
		c-5.2-1.7-7.4-2.1-7.5-3.8c1.7-0.5,11.5,1.5,14.5,1.6C148.5,382.2,158.7,378.7,164.2,378.3z M204.4,377.5
		c-1.4,0.3-5.8-1.1-11.2-1.5c-6-0.4-13.2,0.3-19,0.5c-10.4-0.2-21.5,1.3-31.2,1.7c-2.2,0.7-5,1-7.1,0c-4.2-0.5-8.6-0.5-9.2-1.6
		c1.7-2.1,9.9-0.3,12.9-1c9-1.2,18.1-1.7,27.3-1.8c3.1,0,6.1,0,9.2,0.1C185.7,374.4,200.7,371.9,204.4,377.5z M195.4,369.6
		c10,1.8,21.7,2.9,24.1,5.1c-1,1.4-4.3,0.8-4.3,0.8c-5-1.7-18.3-3.4-29.1-4.3c-2.5-0.6-4.7,0.8-7.5-0.3c-10.7-1.3-38.9,2.6-40,0.5
		c1-1.4,19-3,26.7-3.1c2.6-0.1,5.2,0,7.8,0C180.6,368.5,187.9,369.9,195.4,369.6z M387.7,363.9c8.7-1.2,23.4,3.5,20.1,14.1
		c-10-0.4-18.8-7.9-29.3-3.4c-11.6,6.9,9.9,3.5,10.4,8.9c-5.3,1.8-26.1,1.8-20.6-8.8c2.5-6.4,8.4-11,14.9-11.3
		C384.7,363.3,386.3,363.6,387.7,363.9z M166.8,362.7c1.6,0,2.8,0,3.4,0c6.7-0.1,16.8,1.9,23.3,1.7c5.2,0.6,13.5,1.2,20.7,2.7
		c7.4,1.5,13.6,4,14,5.4c-1.3,0.6-8.6-1.4-13.1-2c-3.4-1.5-13.3-3.7-18.1-3.4c-6.2-0.5-25.2-0.5-29.4-1.9c-5.4,1-13.7-0.1-14-0.8
		C154.3,362.9,162,362.8,166.8,362.7z M247.3,360.7c1.4-0.1,3.1,1.9,4.3,2.6c1,1.5,2.1,4.7,1.8,5.1
		C252.3,368.6,246.7,360.9,247.3,360.7z M239.8,358.7c0.5,0,3.4,1.1,3.8,2.6c1.8,1.3,3.5,4,4,6.1c-1.5,1.4-3.9-3-5.2-3.3
		C241,362.4,239.1,359.9,239.8,358.7z M175.8,358.7c1.6,0,3.2,0,4.7,0c10.1,0.5,31.5,3.3,38,4.5c5.6,1.9,15.6,4.9,17.8,6.9
		c-3.9,1.9-21.4-6.5-23.1-6c-2.8-0.5-11.6-1.4-12.4-1.1c-12.1-2.9-36.9-1.3-37.4-3.3C165.8,358.8,171,358.7,175.8,358.7z M179.5,354
		c2.5,0,6.5,0.6,9.2,0.6c4.4-0.1,11.1,1.1,14.5,1.2c8.2,1.7,25.6,3.9,27.4,8.7c-2.9,1-11.9-5.2-15.7-4.6c-2.2-0.7-13.7-1.8-16.4-2.8
		c0,0-4,0.1-15.3-1.3c-2.6,0.1-5.5,0.1-5.6-1.8C178.2,353.9,178.9,354,179.5,354z M224,351.8c1.9,0,6.3,1.7,8.1,3.4
		c3.3,1.2,4.9,4.2,7.6,8.9c-2.2,1.3-4.5-3.9-6.2-4.4C231.1,356.5,224,353.6,224,351.8z M217.3,353.2c0,0,9.5,2.6,11,5.5
		c-1.8,0.9-6.8-2.5-11.7-3.7c-4.5-1.1-9.6-1.9-12.4-2.3c-3.5-0.4-7.3-0.5-10.2-0.7c-2.9,0.5-7.6-0.5-7.8-1c0.7-0.7,2-0.8,3.6-0.8
		c1.9,0,3.9,0.1,5.8,0.1C202.9,350.8,210.3,351.3,217.3,353.2z M179,348.1c2.7-0.1,0,3.5-5.4,4c-6.9,2.7-13.7,4.6-19.7,8.4
		c-9,2.2-17.6,7.6-26.5,9.3c-9.5,3.9-18.5,8.1-28,12c-8.7,2.8-16.6,5.7-24.2,11.2c-1.8,0.1-3.3,1.3-5,1.5c1-4.9,11.4-6.2,15.5-10.1
		c10.8-3.3,20.8-9.4,31.3-12.6c10-2.3,18.3-8.6,28.2-10.5c9.2-4.2,19.2-8.5,29.2-11.7C176.7,348.5,178.1,348.1,179,348.1z
		 M343,345.1c4.2-0.2,8.1,0.8,11,4.8c11.6,11.9-9.7,11.1-16.2,10.4c-8.3,1.5-18.3-3.9-27.1-5c-2.5-3.8,11.3-6.4,15.7-8
		C331.6,347.4,337.6,345.3,343,345.1z M15.4,340.5c4.4-0.3,3.4,10.7,2,14.9c-3.6,8.9-5.7-12.3-4.3-14
		C14,340.8,14.8,340.6,15.4,340.5z M47.1,297.2c1.4,0,2.7,0.1,4.1,0.3c15.5,0.6-1.7,15-6.2,19.8c-8.8,7.4-2.8,19.4-9.7,26.4
		c-7.5,2.9-2.3,22.9-0.4,9.2c3.1-12,18.2-7.1,16.1,5c-1.7,7.5-0.6,20.4,10.7,15.5c1.7-6.9,6-3.7,12.2-2.7c-7.5,4.9-14.1,5-21.3,9.4
		c-2.8,3.2-7.3-2.3-9.2-4.3c0.7-6.3,5.8-12.6,3.4-20.6c-5.1,3.1-12.1,11.9-19.4,15c-4.4-7.7-0.5-18.1-1.4-26.2
		c-5.1-9.8-7.5-22.6-0.1-31.9C28.6,302.4,37.5,297.2,47.1,297.2z M257.4,300c7.3,5.6,5.7,17.9-3.3,22.6c-10,2.8-20,12.1-31.1,8.1
		c-10.6-11.2-20.7,4.8-33.1,2.8c-22.8,9-46.1,16-68.3,26.7c-8.7,4.4-18.5,6.1-26.6,11.7c-2.3,1.2-4.4,2.8-6.9,3.7
		c-8.4-3.9,10.1-8.8,13.3-12.5c25.8-12.9,50-28.7,75.7-41.6c12-2.3,24.2,2.2,36.3,0c9-2.6,17.4-1.8,26.1-5.6
		c7.1-8.3-9.2,0.4-5.6-3.9c-3.7-4.1-18.9,2.8-25.9-3.9c-12.3-9,7-14.1,14.6-14.7C242.8,295.2,246.1,296.3,257.4,300z M256.4,265.7
		c-5.7,0-14,2.2-17.2,2.9c-5.3-0.6-20.8,1.8-14.6,8c2.2,0.2,4.7,0.9,6.8-0.4c11.2,0.5,19.3-9,29.8-4.4
		C263.6,267.2,260.8,265.7,256.4,265.7z M421.8,295.4c7.2,5.7,18.1-6,26.3-0.1c5.5,6.8,13.5,17,10.1,27.5c5.2,11.1-6,14.6-13.2,18.7
		c0.7,7.9,12.5-3.1,9,2.6c-3,11.3-12.7,18.4-21.9,24.5c-4.8,1.4-10.3-0.7-14.8-2.8c-5.3-5.9,11.5-9,15.1-13.9
		c6.5-6.4,10-15.3,15.3-22.6c8.2-10.3-18.6-15.8-15.9-3c6.8,4.7,3,9.2-3.4,14.3c-6.1,3.7-12.3,9.4-18.4,9.3c0.9,0.3-5.7,6.6-5.1,1.9
		c4.8-8.7,4.2-21.9,14.6-26.1c7.4,1.7,12.4-13.9,2.6-14.2c-9.9-3.1-10.7,10.5-16.8,16.2c-10.9,8.4-0.2-9-1-13.9
		c0.2-10,1.1-19.9,3.6-30.2c4.2-9.8,14-12.8,22.8-17.5c1.5-2.2,2.8-3.1,3.9-3.1c5.2,3.3,2.8,10.7,0,14.8
		C426.1,280.8,428.2,290,421.8,295.4z M31,259.5c4.1,0.2-2.6,6.5-2.3,9.1c11.9,1.4-0.7,16.4-1.2,23.4c-9.9,6.3-6.6,18.2-14.6,26.6
		c-9,3.6-12.3,0.3-9.6-9c1.2-11.2,11.3-15.3,18-22.2c2.7-2.7,9.9-14.4,3.8-13.1c-3.3,9-15.7,17.8-17.5,2.7
		c-3.2-12.4,11.7-16.1,20.9-17.3C29.7,259.5,30.4,259.4,31,259.5z M300.3,255.2c4.5-0.1,9.3,1.4,12.6,3.6c8.6,7.2,8,20.9,14.3,29.8
		c7.5,8.3,4.3-4.3,1.8-8.2c-5.3-8.2,0.9-16.2,9.5-17.4c10.6-4.4,20.5,3.4,24.5,13.1c1.5,4.8,3.9,22.9,8.7,10.4
		c-6.2-6.5,0.2-12.2,6.9-7c11.2-0.7,4.7,21.8,13.3,14.6c6.3,9.1,4.6,21.1,1.9,31.3c-1.8,13.8-15.4,12.2-24.4,17.6
		c-14.6,3.7-11-14.8-4.9-21.8c4.9-2.5,8-23.5,1.6-15c-3.6,7.5-11.4,12-17.8,17.8c-10.2,0.3-5.2,11.9-13.1,14.6
		c-8.1,7.4-21.7,3-29.3,8.7c-6.8,0.9-15.1-2.4-22.3-0.5c-10.5-4.1-22.2-1-33.2-2.8c-16.2-5.5,3.8-16.4,12.6-13.5
		c10-0.3,19.4-0.9,29.2-1.5c10.8-0.3,21.1-4.6,29.8,4c4.5,9.8,19.5-3.1,7.5-4.9c-8.6-8.6,2.6-21.2,6.6-29.6
		c-10.4-7.8-6.8,12.1-16.4,13.4c-9.4,5.2-19.7,10.9-30.7,10.8c-13,0.8-20.2-11.9-16.1-23.6c5.9-8,20-4.1,25.5-12
		c-4.4-7.4-7.4-18.9-9.3-26.8C291.5,256.8,295.8,255.3,300.3,255.2z M53.1,253.3c3.5,0,6.9,1.5,9,5.1c8.1,7,6.5,18.4,5.6,27.9
		c7.4,0,2.2-19.7,10-24.3c4.9-11,16.9-5,24.3,0.2c5.7,8.6,4,20.8-2.3,29.3c-6.7,4.9-9.1,11-11.4,18.9l-2.9,1.6
		c-12.5,2.3-14.1-12-9-19.9c-0.6-11.8-5.7,2.8-12.5,0.8c-15.2,4.6-25-9.6-24.2-23.4C37.1,260.8,45.4,253.3,53.1,253.3z M532,246.3
		c12,2.9,8.4,17,0.4,22.1c-3.7,3.5-10,0.2-13-2.9c-0.4-7.3-6.4-5.3-7.6,0.1c-9,1.2-8.8-15.6,1.6-14.8c4,15.5,10.1-3.8,17.3-4.5
		C530.9,246.3,531.8,246.3,532,246.3L532,246.3z M518.7,242.3c1.3,0,2.3,1.2,1.4,4.6C513,246.5,516.3,242.3,518.7,242.3z
		 M365.2,231.8c8.1-0.2,10.7,17.7,7,24.2c-0.7,1.3-1.3,2.7-2.3,3.9c0.1-5.9-7.5-9.9-6.9-16.5c-4.8-3.6,1.6-9.5-0.5-10.9
		C363.4,232.1,364.3,231.8,365.2,231.8z M386.9,229.1c1,0,2.3,0.6,3.9,2c9.4,4.3,7.1,16.7-2.1,19.9c-2.4,2.6-7.8,7.5-6.5,0.1
		C383,246,381.3,229.1,386.9,229.1z M587.8,217.7c5.8,0.3,3.4,19.3-2.8,17.7c4.4-8.5-11.7-7.2-6-13.1c2.5-3,4.6-4.4,6.2-4.6
		L587.8,217.7L587.8,217.7L587.8,217.7z M53.2,214.5c6.1-0.4,13.3,5.2,19.6,6.6c8.2,5.3,1.5,17.6-3.3,23.2c-2.4,2.2-7.3,6.6-9.9,2.3
		c-12.8-1.8-18.9-18.6-12.1-29.2C49.2,215.4,51.1,214.6,53.2,214.5z M530.3,212.8c5.7,0.3,9.3,3.2,10.4,8.4
		c-5.4,7.5-3.9,13-12.9,18.1c-2.2,3-5.8,0.9-6.3-2.2C518.8,227.6,532.2,220.1,530.3,212.8z M557.7,212.2c3.8-0.1,7.5,2,9.7,6.6
		c1.8,10.1-2.9,21-7.5,29.5c-2.8,2.6-7.8,3.8-11,1.1c-3.9-8.2-7.6-18.1-2.4-27.1C548,216,552.8,212.3,557.7,212.2z M513.3,212
		c11.8,0.3,5.8,17.1-3.6,18.8c-16.8,4.3-7.1-15.4,0.7-18.7L513.3,212z M27.6,211.4c1.1,0,2.2,0.1,3.5,0.4c14.1,1,6.1,19.7,8.2,29.1
		c1.6,12.8-12.7,12.7-20.6,17c-10.1,2.7-6.3-7.9-5.5-13.2c1.1-10.3,16.4-2.9,5.7,3c1.7,11.9,8.1-3.9,11.1-7.4
		c-1.3-2.9,4.2-16.8-3.7-13.3c1.3,11.1-7.2,8.1-6.7-1.4C17,218.5,20.1,211.5,27.6,211.4z M279.4,218.2c1.8,2.2,4.4,0.3,5.9-1.2
		c5.9-3.9,4.6-5.9,1.7-6.1c-0.4,0-1.8,0-2.2,0C280.3,211.6,278.1,213.8,279.4,218.2z M173.9,210.4c5-0.3,9.9,1.7,13,7.1
		c6.8,7.8,15.4,20.1,6.5,29.2c-3.3,11.6,7.2-0.1,11.1-2c4.9-10.7,19.6-7.7,29.1-4.9c10.5,2.2,18.3,9,26,15.9
		c-0.7,8.3,8.5,7,12.2,12.4c3.7-14,9.6,8.2,15.9,3.8c-1.6,3.8,3.5,11.5-0.6,14.8c-11.8,2.4-24.1,1.3-36.1,1.9
		c-10.7,1.7-21.5,3.1-32.4-0.5c-8,3.3-24.6,2.8-21.9-9.9c5.3-5.7,13.8-9.4,20.4-13.4c6.7,5.2,12.5-7.5,3.8-5.9
		c-9.2,2-16.7,8.3-26.7,8.3c-10.1-2.3-20.3-10.7-30.8-4.6c-11.8-0.4-20.3,8.2-31.1,9.9c-1.5,11.2,13.7,1.9,19.7,2.6
		c8.4,0.1,21.4-1.4,25.8,6.8c11.6,0.1,11,19.2-0.9,18.3c-10.4,1.1-20.2-4.9-29.9-7.8c-7,7.7,8.2,5.2,10.8,10.7
		c7.3,6.4,1.5,17.2-1.5,24.4c-11.6,7.7-24,14.3-36.3,20.9c-12,4.5-23.3,10.5-34.6,16.6c-0.4,0.5-10.5,4.3-5.8,0.8
		c-4.2-2.4-20.7-1.5-20-13c3.7-8.7,8.9-18.1,6.8-28.1c-5.9,1.8-10.8,12.9-19.9,10.7c-3-10.5,5.4-21.6,15.5-24.6
		c9.3,0.5,15.5,12.9,19.8,17.6c6.6,9.7-1,20.1-6.5,28.2c0.8,11.7,11.7-2.2,17.6-3.2c10.5-5,18.7-13.2,27.1-21
		c4.4-9,23.3-9.1,21.6-19.6c-9.7,1.1-14.8-6.1-8.7-14.6c5.9-2.4,7.3-12.1-1-9.1c-6.4,8.3-11.6,17-15.1,26.7
		c-4.8,8.1-24.7,15.7-21.3-0.4c3.1-10.9,10.7-19.7,16.3-29.4c2.3-6.9,20-6.5,13.5-13.8c-14.5-1.1-5-18.6,0.5-25.1
		c7.8-6.6,19.3-8.8,29.1-7.3c3.5-0.7,10.4,0.1,14.8,5.1c9.2,3.5,1.6-12.6-5.7-9c-13.8,2.9-11.8-12.8-3.8-18.4
		C163.8,213.4,168.9,210.7,173.9,210.4z M528.1,210.9c-6,1.7-4.5-1.9-2.5-2.3C527.1,208.7,527.5,209.7,528.1,210.9z M440.2,204.2
		c10.9,8.9-9.8,14.9-15.6,18.3c-2.7,5.3-7.7-4.5-6-7.7c2.9-5.9,9.8-10.5,16.8-11C437,203.6,438.6,203.9,440.2,204.2z M570.5,200.3
		c3-0.2,5.6,1.7,3.6,6.9c-1.8,4.6-5,3.3-7.9,1.1C562.3,204.1,566.7,200.5,570.5,200.3z M381.3,197.7c2.4,0.1,4.8,1.5,6,5.1
		c-1.8,12.1,17.7,6,12.8,18c-6.5,3.4-17.1-5.4-22.8-9.7C368.3,206.4,375.1,197.5,381.3,197.7z M89.3,177.6c4-0.2,8.1,1.8,9.2,6.1
		c-2.5,9.6-6.8,28.5-19.9,27.4c-11.6-6-3.2-18.6,2.5-26.6C81.5,180.2,85.3,177.8,89.3,177.6z M548.4,177.4c1.2-0.1,2.4,0,3.6,0.3
		c10.5,8-1,17.6-6.6,22.8c-4.7,4.3-19.4,3-14.6-6.4C531.7,185,539.9,177.8,548.4,177.4z M45.8,176.5c0.1,0,0.3,0,0.4,0
		c1.5,0.1,3.2,1.6,5.1,5.2c-7.2,4.9-3.3,19-13.5,24.5c-9.7,4.2-6.7-11.3-4.9-16.3C38.4,188.2,41.5,176.9,45.8,176.5z M245.6,176.2
		c8.7,2.6,15.4,7.9,23.7,11.9c9.1,0.7,11.6,17.5,20.3,9c8.4-4.6,19.3,3.6,28.2,5.9c9.8,0.9,2.1,10,6.7,13.4c4.9-9.6,18.4-7.9,27-4.1
		c9.7,2.3,20.8,6.3,25.2,16.3c0.4,12.5-7.3-4.6-13.6-4c-7.4,1.3-7.2-4.6-13.1-5.4c-14.6-5.3-10.2,7.8-3.5,13.8
		c0.8,8.5-4.6,20.9-14.7,21.6c-1.7,0.1-3.4,0.3-5.1,0.5c-6-2-15.6-10.9-14.1-18.1c0.7-7.1,13-13.6,4.7-19.4
		c-4.6,4.4-11,5.7-15.6-0.4c-15.1-2.7,10,12.5,1.1,17c0.4,8-8.1,9.4-11.2,14.7c-9.2,2-29.7-1.7-22.6-14.9c1.9-3.7,13-16.3,2.8-12.2
		c-5,6.8-20.3,13-26.1,4.4c-6.8-12.5,21.3-12.6,12.2-20.8c-5.5,4.2-13.5,7.4-20.3,11.7c-8.2,5.2-19.5,6-24.6,14.6
		c-12-2.8,2.9-14.2,9.3-15.2c3.9-9.7,13.5-10.4,22.3-13.4c2.5-7.2-10.8-5.2-11.6-12.9C227.2,183.3,239,177.5,245.6,176.2z
		 M203.8,176.1c-7.3-9.6-15.7,8.1-3.6,6.5c7.8-2.2,25.7-5.6,21.7,8c-3.4,9.2-14.1,12.8-22.7,15.5c-0.4,1.3-2.2,1.2-3.1,0.6
		c-9.6-0.7-10.9-6.9-13.2-14.5c-3.8-7.7-4.4-19.8,6.1-21.3C193.8,169.9,207.9,170.7,203.8,176.1z M155.1,151.8
		c1.4-0.1,2.9,0.1,4.4,0.5c-0.2,7.6,13.7-0.6,14.7,8.2c2.3,13.7-15,14.1-24,13.5c-10.9-10.6-6,8.3-11.2,12.8
		c-2.7,9.8-16.8,13.9-15.4,23.7c8.4,0,7.7-14.8,17.6-15.9c7.6-6.7,25.5-11.5,28.5,1.7c-2.5,10.8-14.4,16.2-21.9,23.3
		c-8.9,3.9-13.7,12.5-21.3,17.9c-9.4,7.1-20.4,11.7-32.3,11.4c-2.3,2.1-6.6-0.1-8.1-2.2c-2.6-14.9,16.5-13.2,22.1-22.1
		c7.7,1.2,8.6-14.1,0.7-7.6c-5.4,13.2-20.2-2.1-10.6-10.5c5.7-7,6-17.9,11.2-25.6c5.9-8.1,12.6-13.8,23-14.4
		C140.2,162.6,145.4,152.1,155.1,151.8z M83.9,148.2c1.1,0,2.2,0.2,3.3,0.6c-4.9,9.2-13.1,19.2-9.1,30.1c-2.7,8.1-10,17.6-12.5,26.9
		c-5.5,6.1-11.3-2.1-11.7-7.5c-0.5-11.6,7.9-20.7,10.3-31.7C67.3,159.1,76,148.4,83.9,148.2z M532.8,146.8c3.1-0.2,6.6,1.6,8.9,6
		c5.5,6.6,7.7,16.6,0.1,22.9c-9.1,1.4-14.1-8.4-15.5-16C523.2,152.6,527.6,147.1,532.8,146.8z M572.3,141.2
		c7.7,2.2,10.6,15,11.9,22.9c-7.3,4.7-2.7,17-7.1,25.3c-9.3,2.7-4.3-18.5-1.6-23.2C578.2,157.7,568,150.7,572.3,141.2z M496.1,140.2
		c5.6-0.1,11.1,0.9,15.7,3.8c0.9,15.2-16.9,3.8-24.3,11.6c-9,0.4-6.6,17.7-1.3,6.1c5.8-2.3,11.8-1.4,19.7-2.4
		c13.5-2.3,20.4,9.9,16,21.7c0.2,8.8-1.3,26.8-13.7,23.6c-4.6-8.1,0.3-19.8-0.9-29.3c-2.8-14.8-8.6,3.9-16.4,1.5
		c-9.9-7.9-15.2,4.5-10.5,12.7c7.2,7,3.4,18.5-6.1,20c-8.5,2.6,0.7,16.2,3.4,6.8c6.2-8.8,19.2,7.3,14.4,15.6
		c-0.2,11.8-11.7,10.3-16.7,2.4c-1.2-12.5-6.8-1.3-9.3,3.8c-4.1,3.6-9.4,3.8-13.9,1.4c1.3-2.3-9.2-9-5.9-14.4
		c2.2-5.1,5.7,2.6,11.4-0.4c7.2-3.9-7.2-3.8,1.5-10.7c3-10.7,0.5-23.1,8.9-31.5c-3.4-5.4-10.1-11-8.8-19.5
		c-2.1-13.2,10.4-17.2,20.4-19.5C484.8,141.6,490.5,140.4,496.1,140.2z M67.6,139.5c2.2,0,4.3,0.7,6.3,2.6c-2.1,8.2-8,15.6-12,23.3
		c-1.9,2.8-5,8.6-8.3,3.3c-14,1.3-9.8-14.9-1.3-19.9C56.2,144.7,62,139.6,67.6,139.5z M343.1,136.3c2.7,0,5.4,1.6,5.9,5.7
		c9.1,2.8,14.9,12.9,23.9,15.9c9.6,1.5,15.1,12.5,14.6,21.6c-3.3,9.6-13.3,13.8-22.7,15.7c-1.7,0.4-3.4,0.8-5.1,1.4
		c-14.8,2-3.1-13.4,0.9-19.4c8.3-5.1,1-11.8-5.7-6.9c-3.7,7.6-10.1,13.8-19.8,16.1c-9.3,6.8-26.9-7.6-12.9-13
		c0.7-11.5,10.1-19.5,16.5-28.1C335.4,140,339.2,136.3,343.1,136.3z M550.2,135.3c0.8,0,1.8,0.3,3,1c11.6,2.8,10.7,19.1,11.7,28.7
		c-0.8,4.8-4.8-2.9-3.3-4.3c-3.4-4-8.8-10.2-7.9-17.9C547.1,144,545.8,135.4,550.2,135.3z M108,124.3c0.9,0,1.8,0,2.8,0.3
		c12,1.6,17.6,17.6,12.4,27.8c-0.3,10.5-13.5,15.5-20.6,21.7c-3.6,0.4-7,1-10.2-1.4c-9,0.7-10.3-13.9-3-18.4
		c4.9-11,15.7-1.9,17.3,6.8c10.6,7.8,2.3-14.1-2.4-16.7C97,139.3,99.5,124.8,108,124.3z M164.3,121.8c9.8-0.6,16.1,13,9.2,21.3
		c-6.3,10.9-16.9,3.1-26.3,5c-3.3,0.2-7.8,3.2-6.9-3.1c0.3-11.2,10.7-17.5,19.6-22C161.4,122.3,162.9,121.9,164.3,121.8z
		 M554.2,113.9c4.7-0.3,15.3,17,3.5,14.5c-7.9,3.5-15.7-11.1-5.1-13.2C553,114.4,553.5,114,554.2,113.9z M111.7,108.4
		c4.5,0.3,0.5,6.2-3.6,9.3c-8.2,6.5-11.6,17-21.6,20.8l-0.8,1.4c-5.5,0.6-10.2-14.7-4.3-17.3c7.8-5.8,15.8-12.4,25.8-13.4
		C108.7,108.6,110.2,108.4,111.7,108.4z M135.2,104.5c3.8-0.1,7.6,0.6,10.2,2.2c10.7,7.1,0.3,22.9-8.5,24.8
		c-8.7,3.5-13.2-7.6-16.4-13.4C118.1,109.1,126.8,104.7,135.2,104.5z M244.6,104c-5.4,0.3-13.7,5.5-16.7,8.3
		c-3.7-2.7-11.9-2.7-9.9,4.9c10.4,13.6-12.8,18.6-11.5,29.3c5.5,1.9,7.9-10.4,15.5-7.6c11.6,7,2.5-7.7,6-13
		c0.4-10.9,10.4-19.5,21.3-17.3C249.3,105,247.4,103.8,244.6,104z M428.4,99.5c6.3-0.3,9.1,7.5,1.8,11.9c-2.3,2-4.4,5.2-7.9,4.8
		c-12.7-2,1.4-9.6,2.3-15.7C426,99.8,427.3,99.5,428.4,99.5z M469.3,83.7c1.6,0,1.9,6,1.2,9.5c-3.1,10.3-8,19-8.6,29.8
		c-3.3,10.3,5.8,2.7,7.4-2c4.1-12.3,19.6-14,30.6-10.4c5.3-0.6,13.1,16.5,12.9,6.1c-4.5-9.5,2.6-3.8,7.3-1.6c5,7.9,5.6,19-0.4,26.1
		c-2.3,3.8-7.5,1.2-9.5-1.5c-12.5-2.1-0.8-22-12.5-19.5c-6-0.6-12.7,2.5-8.2,9.7c-6.8,8.7-20.2,10-30,7.5
		c-6.3-7.9-23.6-15.1-14.8-26.9c3.3-10.6,16.5-12.9,21.7-22.4C467.6,84.9,468.6,83.6,469.3,83.7z M239.6,82.6
		c8.4,0.1,15.6,5.7,24.7,5.4c11.9-0.2,23.2,12.5,12.2,22.8c-4,13.2-19.2,8.8-28.8,14c-8.5,2.2-2.2,7.4,2.5,8.3
		c12,5.2,1.1,18-5.5,21.9c-3.2,8.3-10.2,15.1-19.3,16.3c-5.3,1.4-17.5,3.1-18.2-4.8c1.6-5,0-12.9-6.3-5.8c-6.9,4.7-21.2,9-18.4-4.9
		c0-8.2-1.1-21.9,9.3-23.8c6.5-5.5-1.3-11.2-4.9-3.6c-6.7,1.8-8.5-18.6,0.8-20.1c10.5-0.9,2.8-7.5-0.7-11.2
		C181.9,84.6,199,87.7,200,97c7.1,9.2-3.3,21.6,1.5,29.1c7.9-2.4,0.6-19.6,12.8-21.5c-0.2-11.2,7.5-19.6,19.3-21
		C235.6,82.9,237.6,82.6,239.6,82.6z M508.2,78.2c7.2,6.7,7.2,16.7,7.3,25.9c4.9-0.7,9.9,8.6,10.9-0.4c5.2,1.6,11.8-3.1,17.3,1.1
		c5.1,0.6,6.5,10.4-0.1,6.4c-10.3-4.3,3.1,9.8-2.1,14.1c-3.6,8.5-7.1-7.7-11.6-8.2c-5.7-4-12.4-13.3-17.9-10.6
		c-2.9,0.8-5.4-0.5-8.5-4.9c-8.1-5-10-25.2-0.3-24.8C505,76.7,506.6,77.4,508.2,78.2z M330.9,72.2c3.5-0.3,7.4,1.8,9.7,6.1
		c10.6,14.7-16.7,9.8-13.5,23.2c8.6,0.3,15.1,4.4,21.4,9.7c-0.5,9.5-13,13.9-16.3,22.8c-8,8.6-4.9,19.8-12.4,28.5
		c-7.2,4-14.4,8.4-22.5,11c-3.5,2.7-8.8,3.9-12.8,1.6c-12,0.7,7.9-16.4-4.3-11.9c-6.2,11.1-17.6,2.2-20.3-5.9
		c2.3-10.1,4.6-20.7,11-29.3c7.7-7.2,11.8-16.4,15.9-25.7c1.6-11.4,5,1.1,10.2,0.4c8.2-2.7,3.9,5.8,10,6.9c1.9,9.2,0.8,22.7-8.7,27
		c-6.5,2.2-14,16.5-2.1,15c9.1,1.3,2.8-5.8,6.9-10.4c9.1-7.6,9.6-20.5,8.2-31.5c-2.6-11.7,11-17.3,12.8-27.8
		C323.7,75.8,327,72.5,330.9,72.2z M410.7,72c0.5,0,1.2,0,1.8,0.1c9.4,4,9.8,18.8,5.7,27.1c-3.3,3.5-8.6,0.2-10.2-3.5
		C403.4,90,402.4,72.4,410.7,72z M438.3,71.5c0.9-0.1,1.7,0.1,2.6,0.3c8.8,4.8,4.9,13.2-3.6,15.7C426.4,87.6,430.3,72.1,438.3,71.5z
		 M159.3,69.5c1.8,0,3.7,0.5,5.5,1.6c5.1,7.3-6.2,19.7-13.9,22.3c-8.8,5.2-20.2,4.4-29.2,9.9c-1.9,2.6-2.3-3-2.1-4
		c0.5-10.2,11.2-14.1,18.9-17.3C144.8,77.9,151.6,69.4,159.3,69.5z M470.7,65.3c0.7-0.1,1.3,0.1,2,0.3c8.8,0,14.3,12,12.2,19.3
		c-5.5,3.3-8.4-1-12.7-2.9C471,79,465.2,65.8,470.7,65.3z M225.9,62.3c4.5-0.1,14.3,16.2,0.7,15.3c-9.3-2.4-21.8,9.4-26.9,0.8
		c-6.5,6.5-20.2,2.6-27.4,11.1c-8.3,4.4-2.2,12.4,5.2,7.4c5.8,7.4-6.6,15.6-13.6,17c-0.6,1-1.9,1.1-2.9,0.6
		c-13.5-8.4,2.8-22.4,9.5-29.8c4.7-9.9,14.8-13.1,23.5-18c7.9-4.5,17.8-4.6,25.2,0.4c4.6,6.5,12.9,2.4,5.3-3.6
		C224.8,62.7,225.3,62.3,225.9,62.3z M258.4,54.8c5.5,0.1,9.5,4,4.4,10c-4.5,7.9,9.4,11.1,4.1,2.1c8.1-10.8,20.6,1.3,30.8,1.1
		c11.4,0.7,20.8,18.2,7.4,22.6l-1.3,0.4c-9.1-1.3-18.8,0.3-27-4.2c-10.8-2.1-19.4-5-29.4-8.4c-13.5-4.7-3.2-18.3,5.3-22.4
		C254.5,55.1,256.5,54.7,258.4,54.8L258.4,54.8z M406.8,53.5c3.9,0.2,5.5,2.9,6.1,6.5c-1.6,1.3-4,1-5.7,0.2
		C402.3,56.3,404,53.6,406.8,53.5z M290.2,45.6c4.6,0.2,10.2,2.3,11.4,5.7c0.7,7.7,5,5.2,10.7,3.6c15.7,1.9,31.8-0.7,47.5,2.1
		c10.9,2.2-3.6,6.2-0.3,11c7.1,1.3,12.2,5.1,11.1,13.2c7.9,6.5,4.8-9.5,6.9-13.7c5.5-7.6-1.7-11.2-8.8-8.9
		c-5.7-6.2,12.6-13.6,16.2-8c4.6,7.3,3.6,17.7,9.3,25.1c-5.3,3.8-2.6,11.4-8.1,15.4c-11.6,8.9,5.1,14.8,10.2,19.4
		c-0.3,6.1-25-1.9-16.5,7.9c11.3,0.8,11.7,11.8,14.1,20.4c10.2,4.8,2.5-16.9,12.5-19.5c8.3,3.3,4.3,18.1,2.8,25.6
		c7.6,7.8,5.8-10.8,14.2-10.2c10-5.6,17.7,16.3,4,14.3c-12.9,6.5,4.2,8.2,7.8,13.9c3.3-6.3,11.5-4.1,12,3.9
		c0.8,9.1-6.5,14.5-12,21.3c-2.6,2.4-5.3,2.3-8.3,0.7c-12.4-0.8-15.7-12.9-13.5-22.8c-11.9-4.4-0.7,13.5-5.1,18.8
		c-4.2,9.9-9.6-9.1-7.6-14c11.7-8.4-10.8-13.4-7.4-24.4c-8-3.5-14-14.5-20-22.6c-8.3-7.2,5.8-7.5,0.8-14.6
		c-9.6-6.4-15-15.1-17.7-26.1c-4.4-8.4-12.8-15.9-21.2-20c-9.6-2.1-18.7-2.4-28.3-1c-8.2,1.4-20.6-1-22.8-10
		C281.8,47.4,285.6,45.5,290.2,45.6z M351.3,44.1c4,0,8.2,0.5,12.5,1.6c8-0.8,5.8,3.5,0.4,6c-8.6,1-19.5-2.8-29.2-1.4
		c-6.9,1.9-14.9-3.8-4-5C338.1,45,344.6,44,351.3,44.1z M251.9,42c4.3,0,8.6,0.4,12.8,0.9c1.6,6.8-15.2,6.7-20.8,10.1
		c-3.2,1.1-6.7,0.8-10.1,0.9c-8,2.5-10.3-5.3-2.1-7.1C237.7,43.3,244.7,42.1,251.9,42z"/>
</g>
</svg>
